<?xml version="1.0" standalone="no"?>
<!DOCTYPE svg PUBLIC "-//W3C//DTD SVG 20010904//EN"
 "http://www.w3.org/TR/2001/REC-SVG-20010904/DTD/svg10.dtd">
<svg version="1.0" xmlns="http://www.w3.org/2000/svg"
 width="640.000000pt" height="1280.000000pt" viewBox="0 0 640.000000 1280.000000"
 preserveAspectRatio="xMidYMid meet">
<metadata>
Created by potrace 1.15, written by Peter Selinger 2001-2017
</metadata>
<g transform="translate(0.000000,1280.000000) scale(0.100000,-0.100000)"
fill="#000000" stroke="none">
<path d="M2297 12789 c-62 -15 -117 -47 -222 -131 -115 -92 -152 -131 -199
-208 -65 -105 -79 -166 -110 -485 -9 -88 -21 -204 -26 -258 -6 -54 -16 -110
-24 -125 -46 -91 -8 -191 88 -225 10 -4 16 -13 13 -20 -2 -7 -12 -48 -22 -92
-21 -94 -26 -105 -77 -167 -52 -63 -128 -122 -343 -266 -99 -66 -201 -142
-227 -167 -77 -76 -130 -165 -164 -276 -13 -44 -16 -47 -86 -74 -239 -92 -352
-192 -395 -348 l-22 -79 22 7 c49 15 114 23 152 18 34 -4 134 -31 143 -38 1
-1 -13 -42 -32 -91 -33 -86 -58 -171 -70 -245 l-6 -36 61 -24 c64 -25 103 -56
112 -89 4 -15 0 -20 -16 -20 -23 0 -176 35 -181 41 -2 2 0 36 5 74 4 39 8 146
8 239 l1 169 -50 -83 c-71 -118 -125 -185 -192 -237 -100 -79 -121 -135 -119
-316 1 -98 -4 -142 -30 -255 -17 -75 -41 -196 -54 -269 -23 -128 -23 -136 -8
-250 18 -145 14 -180 -37 -313 -60 -157 -58 -203 20 -411 85 -228 146 -340
261 -483 115 -143 148 -177 342 -359 218 -205 269 -278 312 -447 55 -220 116
-300 264 -350 101 -34 238 -25 393 26 l48 16 0 49 c0 66 -25 218 -55 334 -14
52 -25 97 -25 99 0 1 -19 8 -42 15 -24 7 -75 28 -113 46 -79 37 -99 61 -180
205 -26 47 -65 109 -87 137 -34 47 -41 66 -59 165 -41 227 -41 229 -350 850
l-68 137 102 85 c104 86 158 148 196 223 16 32 33 47 76 68 l56 28 72 -36
c100 -51 194 -124 317 -248 124 -126 152 -144 307 -205 135 -53 154 -68 256
-204 39 -52 84 -109 100 -127 30 -32 30 -32 23 -120 -9 -116 -19 -155 -71
-299 -93 -256 -128 -435 -128 -649 -1 -317 68 -467 330 -720 186 -180 238
-245 257 -321 21 -81 34 -226 41 -434 9 -288 35 -410 129 -601 26 -52 45 -102
42 -112 -8 -32 14 -150 48 -262 54 -171 66 -228 66 -299 0 -68 -32 -176 -52
-176 -25 0 -282 -134 -371 -194 -53 -36 -119 -77 -145 -90 -27 -14 -81 -53
-119 -88 -39 -35 -93 -82 -121 -105 -74 -63 -133 -166 -202 -354 -33 -90 -79
-195 -102 -234 -181 -308 -535 -730 -758 -905 -52 -41 -117 -93 -145 -116 -40
-33 -61 -43 -105 -49 -121 -16 -273 -85 -291 -131 -22 -60 -9 -284 30 -480 20
-100 41 -348 41 -473 0 -125 -16 -271 -42 -385 l-13 -59 39 -33 c60 -52 113
-66 269 -72 103 -3 161 0 232 13 90 16 343 80 352 88 2 3 9 32 15 66 15 78 9
83 -94 79 -75 -3 -79 -2 -172 47 -53 28 -96 54 -96 59 0 36 343 733 427 866
179 282 418 528 773 795 376 282 614 489 781 677 79 90 66 108 104 -152 42
-291 34 -407 -54 -845 -111 -554 -147 -693 -237 -920 -23 -59 -28 -85 -28
-165 0 -84 3 -101 26 -146 15 -27 33 -55 40 -61 9 -8 130 -13 378 -16 403 -5
529 -14 700 -52 63 -14 133 -30 155 -35 124 -27 209 -33 293 -20 94 14 199 60
245 108 l28 29 -52 46 c-73 64 -145 100 -274 136 -216 62 -396 171 -557 339
-152 158 -143 137 -143 327 1 247 37 385 240 900 164 416 249 672 305 915 43
188 71 282 135 448 35 93 74 200 86 238 12 38 35 94 50 125 43 85 56 176 40
296 -8 54 -19 105 -26 113 -8 10 -15 69 -19 165 -8 198 -33 360 -96 625 -30
128 -50 274 -50 377 0 120 -24 288 -61 431 -37 143 -63 221 -149 447 -38 99
-78 218 -89 265 -41 169 -91 413 -97 468 -21 199 -72 415 -134 571 -21 53 -48
132 -60 176 -12 44 -37 120 -57 168 -90 229 -117 418 -115 828 l0 306 51 94
c31 58 76 171 116 294 68 204 148 378 205 448 82 97 182 117 309 58 63 -29 88
-35 194 -42 148 -11 369 3 504 32 189 41 357 109 598 244 320 178 442 280 517
433 31 63 31 63 18 135 -15 86 -122 422 -157 492 -14 28 -49 86 -78 130 -29
44 -64 100 -78 125 -14 25 -58 89 -97 143 -40 54 -70 104 -67 111 12 30 -158
239 -277 343 -39 35 -74 63 -78 63 -4 0 21 -69 56 -153 118 -287 127 -334 88
-477 -41 -149 -53 -233 -53 -360 0 -69 3 -138 6 -153 11 -42 -2 -32 -30 23
-14 28 -42 76 -62 107 -34 54 -36 63 -44 172 -15 211 -37 349 -79 492 -11 36
-20 69 -20 72 0 3 44 -37 98 -89 l97 -96 3 42 c5 64 -44 159 -121 234 -34 33
-114 98 -177 143 -96 68 -118 88 -129 120 -36 102 -147 223 -205 223 -42 0
-72 -32 -81 -85 -13 -83 -11 -81 -74 -98 -95 -27 -236 -39 -321 -28 -41 5 -76
8 -78 6 -9 -8 105 -456 123 -484 3 -6 22 -11 42 -11 27 0 46 9 80 40 50 44
118 73 214 91 35 6 69 13 76 15 7 2 33 44 58 94 43 86 47 90 78 90 31 0 36 -6
75 -74 23 -40 42 -85 42 -99 0 -15 9 -64 19 -109 23 -102 33 -305 23 -497 l-7
-144 -55 -15 c-30 -8 -56 -16 -58 -18 -2 -1 17 -30 42 -64 25 -34 46 -65 46
-69 0 -3 -52 -32 -116 -64 -91 -45 -119 -55 -125 -45 -12 19 -11 47 6 102 8
27 14 50 13 51 -2 1 -34 19 -73 40 -117 64 -116 52 -10 131 52 38 95 73 95 78
0 5 -39 6 -89 3 -103 -7 -134 -20 -236 -101 -38 -30 -90 -67 -116 -81 l-47
-25 -141 44 c-161 51 -297 71 -416 61 -97 -8 -259 -32 -340 -51 -93 -21 -89
-25 -81 67 9 106 31 208 61 282 13 34 23 62 22 63 -1 1 -24 5 -52 10 l-50 9
-7 190 c-5 170 -31 452 -44 497 -3 10 0 44 7 77 10 53 9 67 -11 132 -19 63
-30 80 -83 133 -34 34 -89 75 -122 91 l-60 30 -365 2 c-201 1 -382 -3 -403 -8z"/>
</g>
</svg>
